<svg width="29" height="20" viewBox="0 0 29 20" fill="none" xmlns="http://www.w3.org/2000/svg">
<path d="M6.79167 4.24984V0.416504H28.375V4.24984H6.79167ZM6.79167 11.9165V8.08317H28.375V11.9165H6.79167ZM6.79167 19.5832V15.7498H28.375V19.5832H6.79167ZM2.16667 4.24984C1.72986 4.24984 1.36372 4.06616 1.06823 3.6988C0.772743 3.33143 0.625 2.87623 0.625 2.33317C0.625 1.79011 0.772743 1.33491 1.06823 0.967545C1.36372 0.600184 1.72986 0.416504 2.16667 0.416504C2.60347 0.416504 2.96962 0.600184 3.2651 0.967545C3.56059 1.33491 3.70833 1.79011 3.70833 2.33317C3.70833 2.87623 3.56059 3.33143 3.2651 3.6988C2.96962 4.06616 2.60347 4.24984 2.16667 4.24984ZM2.16667 11.9165C1.72986 11.9165 1.36372 11.7328 1.06823 11.3655C0.772743 10.9981 0.625 10.5429 0.625 9.99984C0.625 9.45678 0.772743 9.00157 1.06823 8.63421C1.36372 8.26685 1.72986 8.08317 2.16667 8.08317C2.60347 8.08317 2.96962 8.26685 3.2651 8.63421C3.56059 9.00157 3.70833 9.45678 3.70833 9.99984C3.70833 10.5429 3.56059 10.9981 3.2651 11.3655C2.96962 11.7328 2.60347 11.9165 2.16667 11.9165ZM2.16667 19.5832C1.72986 19.5832 1.36372 19.3995 1.06823 19.0321C0.772743 18.6648 0.625 18.2096 0.625 17.6665C0.625 17.1234 0.772743 16.6682 1.06823 16.3009C1.36372 15.9335 1.72986 15.7498 2.16667 15.7498C2.60347 15.7498 2.96962 15.9335 3.2651 16.3009C3.56059 16.6682 3.70833 17.1234 3.70833 17.6665C3.70833 18.2096 3.56059 18.6648 3.2651 19.0321C2.96962 19.3995 2.60347 19.5832 2.16667 19.5832Z" fill="#1D1B20"/>
</svg>
