<svg width="18" height="18" viewBox="0 0 18 18" fill="none" xmlns="http://www.w3.org/2000/svg">
<path d="M9 9.49805C10.2426 9.49805 11.25 8.54665 11.25 7.37305C11.25 6.19944 10.2426 5.24805 9 5.24805C7.75736 5.24805 6.75 6.19944 6.75 7.37305C6.75 8.54665 7.75736 9.49805 9 9.49805Z" stroke="#676767" stroke-linecap="round" stroke-linejoin="round"/>
<path d="M14.625 7.37305C14.625 12.1543 9 15.873 9 15.873C9 15.873 3.375 12.1543 3.375 7.37305C3.375 5.96408 3.96763 4.61283 5.02252 3.61654C6.07742 2.62026 7.50816 2.06055 9 2.06055C10.4918 2.06055 11.9226 2.62026 12.9775 3.61654C14.0324 4.61283 14.625 5.96408 14.625 7.37305V7.37305Z" stroke="#676767" stroke-linecap="round" stroke-linejoin="round"/>
</svg>
