<svg width="18" height="18" viewBox="0 0 18 18" fill="none" xmlns="http://www.w3.org/2000/svg">
<path d="M9 9.06396C10.2426 9.06396 11.25 8.11257 11.25 6.93896C11.25 5.76536 10.2426 4.81396 9 4.81396C7.75736 4.81396 6.75 5.76536 6.75 6.93896C6.75 8.11257 7.75736 9.06396 9 9.06396Z" stroke="#676767" stroke-linecap="round" stroke-linejoin="round"/>
<path d="M14.625 6.93896C14.625 11.7202 9 15.439 9 15.439C9 15.439 3.375 11.7202 3.375 6.93896C3.375 5.53 3.96763 4.17875 5.02252 3.18246C6.07742 2.18617 7.50816 1.62646 9 1.62646C10.4918 1.62646 11.9226 2.18617 12.9775 3.18246C14.0324 4.17875 14.625 5.53 14.625 6.93896V6.93896Z" stroke="#676767" stroke-linecap="round" stroke-linejoin="round"/>
</svg>
