<svg width="17" height="15" viewBox="0 0 17 15" fill="none" xmlns="http://www.w3.org/2000/svg">
<path d="M16.625 1.5V11.5C16.625 11.6658 16.5592 11.8247 16.4419 11.9419C16.3247 12.0592 16.1658 12.125 16 12.125H11C10.337 12.125 9.70107 12.3884 9.23223 12.8572C8.76339 13.3261 8.5 13.962 8.5 14.625C8.5 13.962 8.23661 13.3261 7.76777 12.8572C7.29893 12.3884 6.66304 12.125 6 12.125H1C0.83424 12.125 0.675268 12.0592 0.558058 11.9419C0.440848 11.8247 0.375 11.6658 0.375 11.5V1.5C0.375 1.33424 0.440848 1.17527 0.558058 1.05806C0.675268 0.940848 0.83424 0.875 1 0.875H6C6.66304 0.875 7.29893 1.13839 7.76777 1.60723C8.23661 2.07607 8.5 2.71196 8.5 3.375C8.5 2.71196 8.76339 2.07607 9.23223 1.60723C9.70107 1.13839 10.337 0.875 11 0.875H16C16.1658 0.875 16.3247 0.940848 16.4419 1.05806C16.5592 1.17527 16.625 1.33424 16.625 1.5Z" fill="#6F6C99"/>
</svg>
